STARTFONT 2.1
COMMENT The X10 name for this font was "/usr/lib/X/xfont/6x13b"
COMMENT ""
COMMENT Characters above 127 designed and made by
COMMENT Thomas Bagli (pyramid!pcsbst!tom@uunet.UU.NET)
COMMENT PCS Computer Systeme, West Germany
COMMENT ""
FONT -Misc-Fixed-Bold-R-SemiCondensed--13-120-75-75-C-60-ISO8859-1
SIZE 13 78 78
FONTBOUNDINGBOX 6 13 0 -2
STARTPROPERTIES 19
FONTNAME_REGISTRY ""
FOUNDRY "Misc"
FAMILY_NAME "Fixed"
WEIGHT_NAME "Bold"
SLANT "R"
SETWIDTH_NAME "SemiCondensed"
ADD_STYLE_NAME ""
PIXEL_SIZE 13
POINT_SIZE 120
RESOLUTION_X 75
RESOLUTION_Y 75
SPACING "C"
AVERAGE_WIDTH 60
CHARSET_REGISTRY "ISO8859"
CHARSET_ENCODING "1"
DEFAULT_CHAR 0
FONT_DESCENT 2
FONT_ASCENT 11
COPYRIGHT "Public domain font.  Share and enjoy."
ENDPROPERTIES
CHARS 224
STARTCHAR C000
ENCODING 0
SWIDTH 1 0
DWIDTH 6 0
BBX 6 13 0 -2
BITMAP
00
00
00
00
00
00
00
00
00
00
00
00
00
ENDCHAR
STARTCHAR C001
ENCODING 1
SWIDTH 1 0
DWIDTH 6 0
BBX 6 13 0 -2
BITMAP
00
00
00
00
00
30
78
fc
78
30
00
00
00
ENDCHAR
STARTCHAR C002
ENCODING 2
SWIDTH 1 0
DWIDTH 6 0
BBX 6 13 0 -2
BITMAP
00
54
a8
54
a8
54
a8
54
a8
54
a8
54
a8
ENDCHAR
STARTCHAR C003
ENCODING 3
SWIDTH 1 0
DWIDTH 6 0
BBX 6 13 0 -2
BITMAP
00
00
00
d8
d8
f8
d8
d8
3c
18
18
18
18
ENDCHAR
STARTCHAR C004
ENCODING 4
SWIDTH 1 0
DWIDTH 6 0
BBX 6 13 0 -2
BITMAP
00
00
00
f0
c0
e0
c0
c0
3c
30
38
30
30
ENDCHAR
STARTCHAR C005
ENCODING 5
SWIDTH 1 0
DWIDTH 6 0
BBX 6 13 0 -2
BITMAP
00
00
00
78
c8
c0
c8
78
78
6c
78
68
6c
ENDCHAR
STARTCHAR C006
ENCODING 6
SWIDTH 1 0
DWIDTH 6 0
BBX 6 13 0 -2
BITMAP
00
00
00
c0
c0
c0
c0
f0
3c
30
38
30
30
ENDCHAR
STARTCHAR C007
ENCODING 7
SWIDTH 1 0
DWIDTH 6 0
BBX 6 13 0 -2
BITMAP
00
00
70
d8
d8
70
00
00
00
00
00
00
00
ENDCHAR
STARTCHAR C010
ENCODING 8
SWIDTH 1 0
DWIDTH 6 0
BBX 6 13 0 -2
BITMAP
00
00
00
00
30
30
fc
30
30
00
fc
00
00
ENDCHAR
STARTCHAR C011
ENCODING 9
SWIDTH 1 0
DWIDTH 6 0
BBX 6 13 0 -2
BITMAP
00
00
00
d8
f8
f8
d8
d8
30
30
30
30
3c
ENDCHAR
STARTCHAR C012
ENCODING 10
SWIDTH 1 0
DWIDTH 6 0
BBX 6 13 0 -2
BITMAP
00
00
00
d8
d8
d8
70
20
3c
18
18
18
18
ENDCHAR
STARTCHAR C013
ENCODING 11
SWIDTH 1 0
DWIDTH 6 0
BBX 6 13 0 -2
BITMAP
30
30
30
30
30
30
f0
f0
00
00
00
00
00
ENDCHAR
STARTCHAR C014
ENCODING 12
SWIDTH 1 0
DWIDTH 6 0
BBX 6 13 0 -2
BITMAP
00
00
00
00
00
00
f0
f0
30
30
30
30
30
ENDCHAR
STARTCHAR C015
ENCODING 13
SWIDTH 1 0
DWIDTH 6 0
BBX 6 13 0 -2
BITMAP
00
00
00
00
00
00
3c
3c
30
30
30
30
30
ENDCHAR
STARTCHAR C016
ENCODING 14
SWIDTH 1 0
DWIDTH 6 0
BBX 6 13 0 -2
BITMAP
30
30
30
30
30
30
3c
3c
00
00
00
00
00
ENDCHAR
STARTCHAR C017
ENCODING 15
SWIDTH 1 0
DWIDTH 6 0
BBX 6 13 0 -2
BITMAP
30
30
30
30
30
30
fc
fc
30
30
30
30
30
ENDCHAR
STARTCHAR C020
ENCODING 16
SWIDTH 1 0
DWIDTH 6 0
BBX 6 13 0 -2
BITMAP
00
00
fc
fc
00
00
00
00
00
00
00
00
00
ENDCHAR
STARTCHAR C021
ENCODING 17
SWIDTH 1 0
DWIDTH 6 0
BBX 6 13 0 -2
BITMAP
00
00
00
00
fc
fc
00
00
00
00
00
00
00
ENDCHAR
STARTCHAR C022
ENCODING 18
SWIDTH 1 0
DWIDTH 6 0
BBX 6 13 0 -2
BITMAP
00
00
00
00
00
00
fc
fc
00
00
00
00
00
ENDCHAR
STARTCHAR C023
ENCODING 19
SWIDTH 1 0
DWIDTH 6 0
BBX 6 13 0 -2
BITMAP
00
00
00
00
00
00
00
00
fc
fc
00
00
00
ENDCHAR
STARTCHAR C024
ENCODING 20
SWIDTH 1 0
DWIDTH 6 0
BBX 6 13 0 -2
BITMAP
00
00
00
00
00
00
00
00
00
00
fc
fc
00
ENDCHAR
STARTCHAR C025
ENCODING 21
SWIDTH 1 0
DWIDTH 6 0
BBX 6 13 0 -2
BITMAP
30
30
30
30
30
30
3c
3c
30
30
30
30
30
ENDCHAR
STARTCHAR C026
ENCODING 22
SWIDTH 1 0
DWIDTH 6 0
BBX 6 13 0 -2
BITMAP
30
30
30
30
30
30
f0
f0
30
30
30
30
30
ENDCHAR
STARTCHAR C027
ENCODING 23
SWIDTH 1 0
DWIDTH 6 0
BBX 6 13 0 -2
BITMAP
30
30
30
30
30
30
fc
fc
00
00
00
00
00
ENDCHAR
STARTCHAR C030
ENCODING 24
SWIDTH 1 0
DWIDTH 6 0
BBX 6 13 0 -2
BITMAP
00
00
00
00
00
00
fc
fc
30
30
30
30
30
ENDCHAR
STARTCHAR C031
ENCODING 25
SWIDTH 1 0
DWIDTH 6 0
BBX 6 13 0 -2
BITMAP
30
30
30
30
30
30
30
30
30
30
30
30
30
ENDCHAR
STARTCHAR C032
ENCODING 26
SWIDTH 1 0
DWIDTH 6 0
BBX 6 13 0 -2
BITMAP
00
00
0c
18
30
60
30
18
0c
00
fc
00
00
ENDCHAR
STARTCHAR C033
ENCODING 27
SWIDTH 1 0
DWIDTH 6 0
BBX 6 13 0 -2
BITMAP
00
00
00
c0
60
30
18
30
60
c0
fc
00
00
ENDCHAR
STARTCHAR C034
ENCODING 28
SWIDTH 1 0
DWIDTH 6 0
BBX 6 13 0 -2
BITMAP
00
00
00
00
00
fc
78
78
78
78
d8
00
00
ENDCHAR
STARTCHAR C035
ENCODING 29
SWIDTH 1 0
DWIDTH 6 0
BBX 6 13 0 -2
BITMAP
00
00
00
00
00
0c
fc
30
fc
c0
00
00
00
ENDCHAR
STARTCHAR C036
ENCODING 30
SWIDTH 1 0
DWIDTH 6 0
BBX 6 13 0 -2
BITMAP
00
00
38
6c
60
60
f8
60
60
6c
f8
00
00
ENDCHAR
STARTCHAR C037
ENCODING 31
SWIDTH 1 0
DWIDTH 6 0
BBX 6 13 0 -2
BITMAP
00
00
00
00
00
00
00
00
30
00
00
00
00
ENDCHAR
STARTCHAR C040
ENCODING 32
SWIDTH 1 0
DWIDTH 6 0
BBX 6 13 0 -2
BITMAP
00
00
00
00
00
00
00
00
00
00
00
00
00
ENDCHAR
STARTCHAR !
ENCODING 33
SWIDTH 1 0
DWIDTH 6 0
BBX 6 13 0 -2
BITMAP
00
00
30
30
30
30
30
30
30
00
30
00
00
ENDCHAR
STARTCHAR "
ENCODING 34
SWIDTH 1 0
DWIDTH 6 0
BBX 6 13 0 -2
BITMAP
00
00
78
78
78
00
00
00
00
00
00
00
00
ENDCHAR
STARTCHAR #
ENCODING 35
SWIDTH 1 0
DWIDTH 6 0
BBX 6 13 0 -2
BITMAP
00
00
00
78
78
fc
78
fc
78
78
00
00
00
ENDCHAR
STARTCHAR $
ENCODING 36
SWIDTH 1 0
DWIDTH 6 0
BBX 6 13 0 -2
BITMAP
00
00
00
30
78
f0
78
3c
78
30
00
00
00
ENDCHAR
STARTCHAR %
ENCODING 37
SWIDTH 1 0
DWIDTH 6 0
BBX 6 13 0 -2
BITMAP
00
00
6c
fc
78
18
30
60
78
fc
d8
00
00
ENDCHAR
STARTCHAR &
ENCODING 38
SWIDTH 1 0
DWIDTH 6 0
BBX 6 13 0 -2
BITMAP
00
00
00
00
60
f0
f0
60
fc
d8
7c
00
00
ENDCHAR
STARTCHAR '
ENCODING 39
SWIDTH 1 0
DWIDTH 6 0
BBX 6 13 0 -2
BITMAP
00
00
38
30
60
00
00
00
00
00
00
00
00
ENDCHAR
STARTCHAR (
ENCODING 40
SWIDTH 1 0
DWIDTH 6 0
BBX 6 13 0 -2
BITMAP
00
00
18
30
30
60
60
60
30
30
18
00
00
ENDCHAR
STARTCHAR )
ENCODING 41
SWIDTH 1 0
DWIDTH 6 0
BBX 6 13 0 -2
BITMAP
00
00
60
30
30
18
18
18
30
30
60
00
00
ENDCHAR
STARTCHAR *
ENCODING 42
SWIDTH 1 0
DWIDTH 6 0
BBX 6 13 0 -2
BITMAP
00
00
00
00
cc
78
fc
78
cc
00
00
00
00
ENDCHAR
STARTCHAR +
ENCODING 43
SWIDTH 1 0
DWIDTH 6 0
BBX 6 13 0 -2
BITMAP
00
00
00
00
30
30
fc
30
30
00
00
00
00
ENDCHAR
STARTCHAR ,
ENCODING 44
SWIDTH 1 0
DWIDTH 6 0
BBX 6 13 0 -2
BITMAP
00
00
00
00
00
00
00
00
00
38
30
60
00
ENDCHAR
STARTCHAR -
ENCODING 45
SWIDTH 1 0
DWIDTH 6 0
BBX 6 13 0 -2
BITMAP
00
00
00
00
00
00
fc
00
00
00
00
00
00
ENDCHAR
STARTCHAR .
ENCODING 46
SWIDTH 1 0
DWIDTH 6 0
BBX 6 13 0 -2
BITMAP
00
00
00
00
00
00
00
00
00
30
78
30
00
ENDCHAR
STARTCHAR /
ENCODING 47
SWIDTH 1 0
DWIDTH 6 0
BBX 6 13 0 -2
BITMAP
00
00
0c
0c
18
18
30
60
60
c0
c0
00
00
ENDCHAR
STARTCHAR 0
ENCODING 48
SWIDTH 1 0
DWIDTH 6 0
BBX 6 13 0 -2
BITMAP
00
00
30
78
cc
cc
cc
cc
cc
78
30
00
00
ENDCHAR
STARTCHAR 1
ENCODING 49
SWIDTH 1 0
DWIDTH 6 0
BBX 6 13 0 -2
BITMAP
00
00
30
70
f0
30
30
30
30
30
fc
00
00
ENDCHAR
STARTCHAR 2
ENCODING 50
SWIDTH 1 0
DWIDTH 6 0
BBX 6 13 0 -2
BITMAP
00
00
78
cc
cc
0c
18
30
60
c0
fc
00
00
ENDCHAR
STARTCHAR 3
ENCODING 51
SWIDTH 1 0
DWIDTH 6 0
BBX 6 13 0 -2
BITMAP
00
00
fc
0c
18
30
78
0c
0c
cc
78
00
00
ENDCHAR
STARTCHAR 4
ENCODING 52
SWIDTH 1 0
DWIDTH 6 0
BBX 6 13 0 -2
BITMAP
00
00
18
18
38
78
58
d8
fc
18
18
00
00
ENDCHAR
STARTCHAR 5
ENCODING 53
SWIDTH 1 0
DWIDTH 6 0
BBX 6 13 0 -2
BITMAP
00
00
fc
c0
c0
f8
ec
0c
0c
cc
78
00
00
ENDCHAR
STARTCHAR 6
ENCODING 54
SWIDTH 1 0
DWIDTH 6 0
BBX 6 13 0 -2
BITMAP
00
00
38
60
c0
c0
f8
ec
cc
cc
78
00
00
ENDCHAR
STARTCHAR 7
ENCODING 55
SWIDTH 1 0
DWIDTH 6 0
BBX 6 13 0 -2
BITMAP
00
00
fc
0c
18
18
30
30
60
60
60
00
00
ENDCHAR
STARTCHAR 8
ENCODING 56
SWIDTH 1 0
DWIDTH 6 0
BBX 6 13 0 -2
BITMAP
00
00
78
cc
cc
cc
78
cc
cc
cc
78
00
00
ENDCHAR
STARTCHAR 9
ENCODING 57
SWIDTH 1 0
DWIDTH 6 0
BBX 6 13 0 -2
BITMAP
00
00
78
cc
cc
dc
7c
0c
0c
18
70
00
00
ENDCHAR
STARTCHAR :
ENCODING 58
SWIDTH 1 0
DWIDTH 6 0
BBX 6 13 0 -2
BITMAP
00
00
00
30
78
30
00
00
30
78
30
00
00
ENDCHAR
STARTCHAR ;
ENCODING 59
SWIDTH 1 0
DWIDTH 6 0
BBX 6 13 0 -2
BITMAP
00
00
00
00
30
78
30
00
00
38
30
60
00
ENDCHAR
STARTCHAR <
ENCODING 60
SWIDTH 1 0
DWIDTH 6 0
BBX 6 13 0 -2
BITMAP
00
00
0c
18
30
60
c0
60
30
18
0c
00
00
ENDCHAR
STARTCHAR =
ENCODING 61
SWIDTH 1 0
DWIDTH 6 0
BBX 6 13 0 -2
BITMAP
00
00
00
00
00
fc
00
00
fc
00
00
00
00
ENDCHAR
STARTCHAR >
ENCODING 62
SWIDTH 1 0
DWIDTH 6 0
BBX 6 13 0 -2
BITMAP
00
00
c0
60
30
18
0c
18
30
60
c0
00
00
ENDCHAR
STARTCHAR ?
ENCODING 63
SWIDTH 1 0
DWIDTH 6 0
BBX 6 13 0 -2
BITMAP
00
00
78
cc
cc
0c
18
30
30
00
30
00
00
ENDCHAR
STARTCHAR @
ENCODING 64
SWIDTH 1 0
DWIDTH 6 0
BBX 6 13 0 -2
BITMAP
00
00
78
cc
cc
dc
fc
fc
f8
c0
7c
00
00
ENDCHAR
STARTCHAR A
ENCODING 65
SWIDTH 1 0
DWIDTH 6 0
BBX 6 13 0 -2
BITMAP
00
00
30
78
cc
cc
cc
fc
cc
cc
cc
00
00
ENDCHAR
STARTCHAR B
ENCODING 66
SWIDTH 1 0
DWIDTH 6 0
BBX 6 13 0 -2
BITMAP
00
00
f8
6c
6c
6c
78
6c
6c
6c
f8
00
00
ENDCHAR
STARTCHAR C
ENCODING 67
SWIDTH 1 0
DWIDTH 6 0
BBX 6 13 0 -2
BITMAP
00
00
78
cc
c0
c0
c0
c0
c0
cc
78
00
00
ENDCHAR
STARTCHAR D
ENCODING 68
SWIDTH 1 0
DWIDTH 6 0
BBX 6 13 0 -2
BITMAP
00
00
f8
6c
6c
6c
6c
6c
6c
6c
f8
00
00
ENDCHAR
STARTCHAR E
ENCODING 69
SWIDTH 1 0
DWIDTH 6 0
BBX 6 13 0 -2
BITMAP
00
00
fc
c0
c0
c0
f8
c0
c0
c0
fc
00
00
ENDCHAR
STARTCHAR F
ENCODING 70
SWIDTH 1 0
DWIDTH 6 0
BBX 6 13 0 -2
BITMAP
00
00
fc
c0
c0
c0
f8
c0
c0
c0
c0
00
00
ENDCHAR
STARTCHAR G
ENCODING 71
SWIDTH 1 0
DWIDTH 6 0
BBX 6 13 0 -2
BITMAP
00
00
78
cc
c0
c0
c0
dc
cc
cc
78
00
00
ENDCHAR
STARTCHAR H
ENCODING 72
SWIDTH 1 0
DWIDTH 6 0
BBX 6 13 0 -2
BITMAP
00
00
cc
cc
cc
cc
fc
cc
cc
cc
cc
00
00
ENDCHAR
STARTCHAR I
ENCODING 73
SWIDTH 1 0
DWIDTH 6 0
BBX 6 13 0 -2
BITMAP
00
00
78
30
30
30
30
30
30
30
78
00
00
ENDCHAR
STARTCHAR J
ENCODING 74
SWIDTH 1 0
DWIDTH 6 0
BBX 6 13 0 -2
BITMAP
00
00
3c
0c
0c
0c
0c
0c
0c
cc
78
00
00
ENDCHAR
STARTCHAR K
ENCODING 75
SWIDTH 1 0
DWIDTH 6 0
BBX 6 13 0 -2
BITMAP
00
00
cc
cc
d8
f0
e0
f0
d8
cc
cc
00
00
ENDCHAR
STARTCHAR L
ENCODING 76
SWIDTH 1 0
DWIDTH 6 0
BBX 6 13 0 -2
BITMAP
00
00
c0
c0
c0
c0
c0
c0
c0
c0
fc
00
00
ENDCHAR
STARTCHAR M
ENCODING 77
SWIDTH 1 0
DWIDTH 6 0
BBX 6 13 0 -2
BITMAP
00
00
cc
cc
fc
fc
fc
cc
cc
cc
cc
00
00
ENDCHAR
STARTCHAR N
ENCODING 78
SWIDTH 1 0
DWIDTH 6 0
BBX 6 13 0 -2
BITMAP
00
00
cc
ec
ec
fc
fc
dc
dc
cc
cc
00
00
ENDCHAR
STARTCHAR O
ENCODING 79
SWIDTH 1 0
DWIDTH 6 0
BBX 6 13 0 -2
BITMAP
00
00
78
cc
cc
cc
cc
cc
cc
cc
78
00
00
ENDCHAR
STARTCHAR P
ENCODING 80
SWIDTH 1 0
DWIDTH 6 0
BBX 6 13 0 -2
BITMAP
00
00
f8
cc
cc
cc
f8
c0
c0
c0
c0
00
00
ENDCHAR
STARTCHAR Q
ENCODING 81
SWIDTH 1 0
DWIDTH 6 0
BBX 6 13 0 -2
BITMAP
00
00
78
cc
cc
cc
cc
cc
cc
fc
78
0c
00
ENDCHAR
STARTCHAR R
ENCODING 82
SWIDTH 1 0
DWIDTH 6 0
BBX 6 13 0 -2
BITMAP
00
00
f8
cc
cc
cc
f8
f0
d8
cc
cc
00
00
ENDCHAR
STARTCHAR S
ENCODING 83
SWIDTH 1 0
DWIDTH 6 0
BBX 6 13 0 -2
BITMAP
00
00
78
cc
c0
c0
78
0c
0c
cc
78
00
00
ENDCHAR
STARTCHAR T
ENCODING 84
SWIDTH 1 0
DWIDTH 6 0
BBX 6 13 0 -2
BITMAP
00
00
fc
30
30
30
30
30
30
30
30
00
00
ENDCHAR
STARTCHAR U
ENCODING 85
SWIDTH 1 0
DWIDTH 6 0
BBX 6 13 0 -2
BITMAP
00
00
cc
cc
cc
cc
cc
cc
cc
cc
78
00
00
ENDCHAR
STARTCHAR V
ENCODING 86
SWIDTH 1 0
DWIDTH 6 0
BBX 6 13 0 -2
BITMAP
00
00
cc
cc
cc
cc
78
78
78
30
30
00
00
ENDCHAR
STARTCHAR W
ENCODING 87
SWIDTH 1 0
DWIDTH 6 0
BBX 6 13 0 -2
BITMAP
00
00
cc
cc
cc
cc
fc
fc
fc
fc
cc
00
00
ENDCHAR
STARTCHAR X
ENCODING 88
SWIDTH 1 0
DWIDTH 6 0
BBX 6 13 0 -2
BITMAP
00
00
cc
cc
78
78
30
78
78
cc
cc
00
00
ENDCHAR
STARTCHAR Y
ENCODING 89
SWIDTH 1 0
DWIDTH 6 0
BBX 6 13 0 -2
BITMAP
00
00
cc
cc
78
78
30
30
30
30
30
00
00
ENDCHAR
STARTCHAR Z
ENCODING 90
SWIDTH 1 0
DWIDTH 6 0
BBX 6 13 0 -2
BITMAP
00
00
fc
0c
18
18
30
60
60
c0
fc
00
00
ENDCHAR
STARTCHAR [
ENCODING 91
SWIDTH 1 0
DWIDTH 6 0
BBX 6 13 0 -2
BITMAP
00
00
78
60
60
60
60
60
60
60
78
00
00
ENDCHAR
STARTCHAR \
ENCODING 92
SWIDTH 1 0
DWIDTH 6 0
BBX 6 13 0 -2
BITMAP
00
00
c0
c0
60
60
30
18
18
0c
0c
00
00
ENDCHAR
STARTCHAR ]
ENCODING 93
SWIDTH 1 0
DWIDTH 6 0
BBX 6 13 0 -2
BITMAP
00
00
78
18
18
18
18
18
18
18
78
00
00
ENDCHAR
STARTCHAR ^
ENCODING 94
SWIDTH 1 0
DWIDTH 6 0
BBX 6 13 0 -2
BITMAP
00
00
30
78
cc
00
00
00
00
00
00
00
00
ENDCHAR
STARTCHAR _
ENCODING 95
SWIDTH 1 0
DWIDTH 6 0
BBX 6 13 0 -2
BITMAP
00
00
00
00
00
00
00
00
00
00
00
fc
00
ENDCHAR
STARTCHAR `
ENCODING 96
SWIDTH 1 0
DWIDTH 6 0
BBX 6 13 0 -2
BITMAP
00
00
38
18
0c
00
00
00
00
00
00
00
00
ENDCHAR
STARTCHAR a
ENCODING 97
SWIDTH 1 0
DWIDTH 6 0
BBX 6 13 0 -2
BITMAP
00
00
00
00
00
78
0c
7c
cc
dc
7c
00
00
ENDCHAR
STARTCHAR b
ENCODING 98
SWIDTH 1 0
DWIDTH 6 0
BBX 6 13 0 -2
BITMAP
00
00
c0
c0
c0
f8
ec
cc
cc
ec
f8
00
00
ENDCHAR
STARTCHAR c
ENCODING 99
SWIDTH 1 0
DWIDTH 6 0
BBX 6 13 0 -2
BITMAP
00
00
00
00
00
78
cc
c0
c0
cc
78
00
00
ENDCHAR
STARTCHAR d
ENCODING 100
SWIDTH 1 0
DWIDTH 6 0
BBX 6 13 0 -2
BITMAP
00
00
0c
0c
0c
7c
dc
cc
cc
dc
7c
00
00
ENDCHAR
STARTCHAR e
ENCODING 101
SWIDTH 1 0
DWIDTH 6 0
BBX 6 13 0 -2
BITMAP
00
00
00
00
00
78
cc
fc
c0
c0
78
00
00
ENDCHAR
STARTCHAR f
ENCODING 102
SWIDTH 1 0
DWIDTH 6 0
BBX 6 13 0 -2
BITMAP
00
00
38
6c
60
60
f8
60
60
60
60
00
00
ENDCHAR
STARTCHAR g
ENCODING 103
SWIDTH 1 0
DWIDTH 6 0
BBX 6 13 0 -2
BITMAP
00
00
00
00
00
7c
d8
d8
70
c0
78
cc
78
ENDCHAR
STARTCHAR h
ENCODING 104
SWIDTH 1 0
DWIDTH 6 0
BBX 6 13 0 -2
BITMAP
00
00
c0
c0
c0
f8
ec
cc
cc
cc
cc
00
00
ENDCHAR
STARTCHAR i
ENCODING 105
SWIDTH 1 0
DWIDTH 6 0
BBX 6 13 0 -2
BITMAP
00
00
00
30
00
70
30
30
30
30
78
00
00
ENDCHAR
STARTCHAR j
ENCODING 106
SWIDTH 1 0
DWIDTH 6 0
BBX 6 13 0 -2
BITMAP
00
00
00
18
00
38
18
18
18
18
d8
d8
70
ENDCHAR
STARTCHAR k
ENCODING 107
SWIDTH 1 0
DWIDTH 6 0
BBX 6 13 0 -2
BITMAP
00
00
c0
c0
c0
d8
f0
e0
f0
d8
cc
00
00
ENDCHAR
STARTCHAR l
ENCODING 108
SWIDTH 1 0
DWIDTH 6 0
BBX 6 13 0 -2
BITMAP
00
00
70
30
30
30
30
30
30
30
78
00
00
ENDCHAR
STARTCHAR m
ENCODING 109
SWIDTH 1 0
DWIDTH 6 0
BBX 6 13 0 -2
BITMAP
00
00
00
00
00
f8
fc
fc
fc
fc
cc
00
00
ENDCHAR
STARTCHAR n
ENCODING 110
SWIDTH 1 0
DWIDTH 6 0
BBX 6 13 0 -2
BITMAP
00
00
00
00
00
f8
ec
cc
cc
cc
cc
00
00
ENDCHAR
STARTCHAR o
ENCODING 111
SWIDTH 1 0
DWIDTH 6 0
BBX 6 13 0 -2
BITMAP
00
00
00
00
00
78
cc
cc
cc
cc
78
00
00
ENDCHAR
STARTCHAR p
ENCODING 112
SWIDTH 1 0
DWIDTH 6 0
BBX 6 13 0 -2
BITMAP
00
00
00
00
00
f8
ec
cc
ec
f8
c0
c0
c0
ENDCHAR
STARTCHAR q
ENCODING 113
SWIDTH 1 0
DWIDTH 6 0
BBX 6 13 0 -2
BITMAP
00
00
00
00
00
7c
dc
cc
dc
7c
0c
0c
0c
ENDCHAR
STARTCHAR r
ENCODING 114
SWIDTH 1 0
DWIDTH 6 0
BBX 6 13 0 -2
BITMAP
00
00
00
00
00
f8
ec
c0
c0
c0
c0
00
00
ENDCHAR
STARTCHAR s
ENCODING 115
SWIDTH 1 0
DWIDTH 6 0
BBX 6 13 0 -2
BITMAP
00
00
00
00
00
78
cc
70
18
cc
78
00
00
ENDCHAR
STARTCHAR t
ENCODING 116
SWIDTH 1 0
DWIDTH 6 0
BBX 6 13 0 -2
BITMAP
00
00
00
60
60
f8
60
60
60
6c
38
00
00
ENDCHAR
STARTCHAR u
ENCODING 117
SWIDTH 1 0
DWIDTH 6 0
BBX 6 13 0 -2
BITMAP
00
00
00
00
00
cc
cc
cc
cc
dc
7c
00
00
ENDCHAR
STARTCHAR v
ENCODING 118
SWIDTH 1 0
DWIDTH 6 0
BBX 6 13 0 -2
BITMAP
00
00
00
00
00
cc
cc
cc
78
78
30
00
00
ENDCHAR
STARTCHAR w
ENCODING 119
SWIDTH 1 0
DWIDTH 6 0
BBX 6 13 0 -2
BITMAP
00
00
00
00
00
cc
cc
fc
fc
fc
78
00
00
ENDCHAR
STARTCHAR x
ENCODING 120
SWIDTH 1 0
DWIDTH 6 0
BBX 6 13 0 -2
BITMAP
00
00
00
00
00
cc
78
30
30
78
cc
00
00
ENDCHAR
STARTCHAR y
ENCODING 121
SWIDTH 1 0
DWIDTH 6 0
BBX 6 13 0 -2
BITMAP
00
00
00
00
00
cc
cc
cc
dc
7c
0c
cc
78
ENDCHAR
STARTCHAR z
ENCODING 122
SWIDTH 1 0
DWIDTH 6 0
BBX 6 13 0 -2
BITMAP
00
00
00
00
00
fc
18
30
60
c0
fc
00
00
ENDCHAR
STARTCHAR {
ENCODING 123
SWIDTH 1 0
DWIDTH 6 0
BBX 6 13 0 -2
BITMAP
00
00
1c
30
30
18
70
18
30
30
1c
00
00
ENDCHAR
STARTCHAR |
ENCODING 124
SWIDTH 1 0
DWIDTH 6 0
BBX 6 13 0 -2
BITMAP
00
00
30
30
30
30
30
30
30
30
30
00
00
ENDCHAR
STARTCHAR }
ENCODING 125
SWIDTH 1 0
DWIDTH 6 0
BBX 6 13 0 -2
BITMAP
00
00
e0
30
30
60
38
60
30
30
e0
00
00
ENDCHAR
STARTCHAR asciitilde
ENCODING 126
SWIDTH 461 0
DWIDTH 6 0
BBX 6 13 0 -2
BITMAP
00
00
68
f8
98
00
00
00
00
00
00
00
00
ENDCHAR
STARTCHAR ascii177
ENCODING 127
SWIDTH 461 0
DWIDTH 6 0
BBX 6 13 0 -2
BITMAP
00
00
00
00
00
00
00
00
00
00
00
00
00
ENDCHAR
STARTCHAR 00a0
ENCODING 160
SWIDTH 461 0
DWIDTH 6 0
BBX 6 13 0 -2
BITMAP
00
00
00
00
00
00
00
00
00
00
00
00
00
ENDCHAR
STARTCHAR 00a1
ENCODING 161
SWIDTH 461 0
DWIDTH 6 0
BBX 6 13 0 -2
BITMAP
00
30
30
00
30
30
30
30
30
30
30
00
00
ENDCHAR
STARTCHAR 00a2
ENCODING 162
SWIDTH 461 0
DWIDTH 6 0
BBX 6 13 0 -2
BITMAP
00
00
10
78
d4
d0
d0
d4
78
10
00
00
00
ENDCHAR
STARTCHAR 00a3
ENCODING 163
SWIDTH 461 0
DWIDTH 6 0
BBX 6 13 0 -2
BITMAP
00
00
38
6c
60
60
f8
60
60
64
f8
00
00
ENDCHAR
STARTCHAR 00a4
ENCODING 164
SWIDTH 461 0
DWIDTH 6 0
BBX 6 13 0 -2
BITMAP
00
00
00
00
cc
fc
48
48
fc
cc
00
00
00
ENDCHAR
STARTCHAR 00a5
ENCODING 165
SWIDTH 461 0
DWIDTH 6 0
BBX 6 13 0 -2
BITMAP
00
00
cc
cc
78
78
fc
30
fc
30
30
00
00
ENDCHAR
STARTCHAR 00a6
ENCODING 166
SWIDTH 461 0
DWIDTH 6 0
BBX 6 13 0 -2
BITMAP
00
30
30
30
30
00
00
30
30
30
30
00
00
ENDCHAR
STARTCHAR 00a7
ENCODING 167
SWIDTH 461 0
DWIDTH 6 0
BBX 6 13 0 -2
BITMAP
00
78
cc
c0
78
cc
cc
78
0c
cc
78
00
00
ENDCHAR
STARTCHAR 00a8
ENCODING 168
SWIDTH 461 0
DWIDTH 6 0
BBX 6 13 0 -2
BITMAP
00
00
cc
cc
00
00
00
00
00
00
00
00
00
ENDCHAR
STARTCHAR 00a9
ENCODING 169
SWIDTH 461 0
DWIDTH 6 0
BBX 6 13 0 -2
BITMAP
00
00
78
cc
b4
ec
e4
ec
b4
cc
78
00
00
ENDCHAR
STARTCHAR 00aa
ENCODING 170
SWIDTH 461 0
DWIDTH 6 0
BBX 6 13 0 -2
BITMAP
00
00
f8
0c
fc
8c
fc
00
fc
00
00
00
00
ENDCHAR
STARTCHAR 00ab
ENCODING 171
SWIDTH 461 0
DWIDTH 6 0
BBX 6 13 0 -2
BITMAP
00
00
00
34
68
d0
a0
d0
68
34
00
00
00
ENDCHAR
STARTCHAR 00ac
ENCODING 172
SWIDTH 461 0
DWIDTH 6 0
BBX 6 13 0 -2
BITMAP
00
00
00
00
00
fc
fc
04
04
00
00
00
00
ENDCHAR
STARTCHAR 00ad
ENCODING 173
SWIDTH 461 0
DWIDTH 6 0
BBX 6 13 0 -2
BITMAP
00
00
00
00
00
f8
f8
00
00
00
00
00
00
ENDCHAR
STARTCHAR 00ae
ENCODING 174
SWIDTH 461 0
DWIDTH 6 0
BBX 6 13 0 -2
BITMAP
00
00
78
cc
bc
ac
bc
b4
ac
cc
78
00
00
ENDCHAR
STARTCHAR 00af
ENCODING 175
SWIDTH 461 0
DWIDTH 6 0
BBX 6 13 0 -2
BITMAP
00
00
f8
f8
00
00
00
00
00
00
00
00
00
ENDCHAR
STARTCHAR 00b0
ENCODING 176
SWIDTH 461 0
DWIDTH 6 0
BBX 6 13 0 -2
BITMAP
00
00
78
cc
cc
78
00
00
00
00
00
00
00
ENDCHAR
STARTCHAR 00b1
ENCODING 177
SWIDTH 461 0
DWIDTH 6 0
BBX 6 13 0 -2
BITMAP
00
00
30
30
fc
fc
30
30
00
fc
fc
00
00
ENDCHAR
STARTCHAR 00b2
ENCODING 178
SWIDTH 461 0
DWIDTH 6 0
BBX 6 13 0 -2
BITMAP
00
e0
b0
30
60
c0
f0
00
00
00
00
00
00
ENDCHAR
STARTCHAR 00b3
ENCODING 179
SWIDTH 461 0
DWIDTH 6 0
BBX 6 13 0 -2
BITMAP
00
e0
b0
60
30
b0
e0
00
00
00
00
00
00
ENDCHAR
STARTCHAR 00b4
ENCODING 180
SWIDTH 461 0
DWIDTH 6 0
BBX 6 13 0 -2
BITMAP
00
30
60
00
00
00
00
00
00
00
00
00
00
ENDCHAR
STARTCHAR 00b5
ENCODING 181
SWIDTH 461 0
DWIDTH 6 0
BBX 6 13 0 -2
BITMAP
00
00
00
00
00
cc
cc
cc
cc
cc
fc
80
00
ENDCHAR
STARTCHAR 00b6
ENCODING 182
SWIDTH 461 0
DWIDTH 6 0
BBX 6 13 0 -2
BITMAP
00
00
7c
fc
f4
f4
f4
74
34
34
34
00
00
ENDCHAR
STARTCHAR 00b7
ENCODING 183
SWIDTH 461 0
DWIDTH 6 0
BBX 6 13 0 -2
BITMAP
00
00
00
00
00
30
30
00
00
00
00
00
00
ENDCHAR
STARTCHAR 00b8
ENCODING 184
SWIDTH 461 0
DWIDTH 6 0
BBX 6 13 0 -2
BITMAP
00
00
00
00
00
00
00
00
00
00
00
30
60
ENDCHAR
STARTCHAR 00b9
ENCODING 185
SWIDTH 461 0
DWIDTH 6 0
BBX 6 13 0 -2
BITMAP
00
60
e0
60
60
60
f0
00
00
00
00
00
00
ENDCHAR
STARTCHAR 00ba
ENCODING 186
SWIDTH 461 0
DWIDTH 6 0
BBX 6 13 0 -2
BITMAP
00
70
f8
88
f8
70
00
f8
00
00
00
00
00
ENDCHAR
STARTCHAR 00bb
ENCODING 187
SWIDTH 461 0
DWIDTH 6 0
BBX 6 13 0 -2
BITMAP
00
00
00
b0
58
2c
14
2c
58
b0
00
00
00
ENDCHAR
STARTCHAR 00bc
ENCODING 188
SWIDTH 461 0
DWIDTH 6 0
BBX 6 13 0 -2
BITMAP
00
60
e0
60
60
64
fc
1c
34
3c
0c
00
00
ENDCHAR
STARTCHAR 00bd
ENCODING 189
SWIDTH 461 0
DWIDTH 6 0
BBX 6 13 0 -2
BITMAP
00
60
e0
60
60
78
ec
0c
18
30
3c
00
00
ENDCHAR
STARTCHAR 00be
ENCODING 190
SWIDTH 461 0
DWIDTH 6 0
BBX 6 13 0 -2
BITMAP
00
e0
b0
60
30
b4
ec
1c
34
3c
0c
00
00
ENDCHAR
STARTCHAR 00bf
ENCODING 191
SWIDTH 461 0
DWIDTH 6 0
BBX 6 13 0 -2
BITMAP
00
30
30
00
30
30
60
c0
cc
cc
78
00
00
ENDCHAR
STARTCHAR 00c0
ENCODING 192
SWIDTH 461 0
DWIDTH 6 0
BBX 6 13 0 -2
BITMAP
00
60
30
00
30
78
cc
cc
fc
cc
cc
00
00
ENDCHAR
STARTCHAR 00c1
ENCODING 193
SWIDTH 461 0
DWIDTH 6 0
BBX 6 13 0 -2
BITMAP
00
30
60
00
30
78
cc
cc
fc
cc
cc
00
00
ENDCHAR
STARTCHAR 00c2
ENCODING 194
SWIDTH 461 0
DWIDTH 6 0
BBX 6 13 0 -2
BITMAP
00
70
d8
00
30
78
cc
cc
fc
cc
cc
00
00
ENDCHAR
STARTCHAR 00c3
ENCODING 195
SWIDTH 461 0
DWIDTH 6 0
BBX 6 13 0 -2
BITMAP
00
68
b0
00
30
78
cc
cc
fc
cc
cc
00
00
ENDCHAR
STARTCHAR 00c4
ENCODING 196
SWIDTH 461 0
DWIDTH 6 0
BBX 6 13 0 -2
BITMAP
00
d8
d8
00
30
78
cc
cc
fc
cc
cc
00
00
ENDCHAR
STARTCHAR 00c5
ENCODING 197
SWIDTH 461 0
DWIDTH 6 0
BBX 6 13 0 -2
BITMAP
00
78
48
78
30
78
cc
cc
fc
cc
cc
00
00
ENDCHAR
STARTCHAR 00c6
ENCODING 198
SWIDTH 461 0
DWIDTH 6 0
BBX 6 13 0 -2
BITMAP
00
00
7c
b0
b0
b0
b8
f0
f0
b0
bc
00
00
ENDCHAR
STARTCHAR 00c7
ENCODING 199
SWIDTH 461 0
DWIDTH 6 0
BBX 6 13 0 -2
BITMAP
00
00
78
cc
c0
c0
c0
c0
c0
cc
78
30
60
ENDCHAR
STARTCHAR 00c8
ENCODING 200
SWIDTH 461 0
DWIDTH 6 0
BBX 6 13 0 -2
BITMAP
00
60
30
00
fc
c0
c0
f8
c0
c0
fc
00
00
ENDCHAR
STARTCHAR 00c9
ENCODING 201
SWIDTH 461 0
DWIDTH 6 0
BBX 6 13 0 -2
BITMAP
00
30
60
00
fc
c0
c0
f8
c0
c0
fc
00
00
ENDCHAR
STARTCHAR 00ca
ENCODING 202
SWIDTH 461 0
DWIDTH 6 0
BBX 6 13 0 -2
BITMAP
00
70
d8
00
fc
c0
c0
f8
c0
c0
fc
00
00
ENDCHAR
STARTCHAR 00cb
ENCODING 203
SWIDTH 461 0
DWIDTH 6 0
BBX 6 13 0 -2
BITMAP
00
d8
d8
00
fc
c0
c0
f8
c0
c0
fc
00
00
ENDCHAR
STARTCHAR 00cc
ENCODING 204
SWIDTH 461 0
DWIDTH 6 0
BBX 6 13 0 -2
BITMAP
00
60
30
00
78
30
30
30
30
30
78
00
00
ENDCHAR
STARTCHAR 00cd
ENCODING 205
SWIDTH 461 0
DWIDTH 6 0
BBX 6 13 0 -2
BITMAP
00
30
60
00
78
30
30
30
30
30
78
00
00
ENDCHAR
STARTCHAR 00ce
ENCODING 206
SWIDTH 461 0
DWIDTH 6 0
BBX 6 13 0 -2
BITMAP
00
70
d8
00
78
30
30
30
30
30
78
00
00
ENDCHAR
STARTCHAR 00cf
ENCODING 207
SWIDTH 461 0
DWIDTH 6 0
BBX 6 13 0 -2
BITMAP
00
d8
d8
00
78
30
30
30
30
30
78
00
00
ENDCHAR
STARTCHAR 00d0
ENCODING 208
SWIDTH 461 0
DWIDTH 6 0
BBX 6 13 0 -2
BITMAP
00
00
f8
6c
6c
6c
ec
6c
6c
6c
f8
00
00
ENDCHAR
STARTCHAR 00d1
ENCODING 209
SWIDTH 461 0
DWIDTH 6 0
BBX 6 13 0 -2
BITMAP
00
68
b0
00
cc
ec
ec
fc
dc
dc
cc
00
00
ENDCHAR
STARTCHAR 00d2
ENCODING 210
SWIDTH 461 0
DWIDTH 6 0
BBX 6 13 0 -2
BITMAP
00
60
30
00
78
cc
cc
cc
cc
cc
78
00
00
ENDCHAR
STARTCHAR 00d3
ENCODING 211
SWIDTH 461 0
DWIDTH 6 0
BBX 6 13 0 -2
BITMAP
00
30
60
00
78
cc
cc
cc
cc
cc
78
00
00
ENDCHAR
STARTCHAR 00d4
ENCODING 212
SWIDTH 461 0
DWIDTH 6 0
BBX 6 13 0 -2
BITMAP
00
70
d8
00
78
cc
cc
cc
cc
cc
78
00
00
ENDCHAR
STARTCHAR 00d5
ENCODING 213
SWIDTH 461 0
DWIDTH 6 0
BBX 6 13 0 -2
BITMAP
00
68
b0
00
78
cc
cc
cc
cc
cc
78
00
00
ENDCHAR
STARTCHAR 00d6
ENCODING 214
SWIDTH 461 0
DWIDTH 6 0
BBX 6 13 0 -2
BITMAP
00
d8
d8
00
78
cc
cc
cc
cc
cc
78
00
00
ENDCHAR
STARTCHAR 00d7
ENCODING 215
SWIDTH 461 0
DWIDTH 6 0
BBX 6 13 0 -2
BITMAP
00
00
00
00
00
cc
78
30
78
cc
00
00
00
ENDCHAR
STARTCHAR 00d8
ENCODING 216
SWIDTH 461 0
DWIDTH 6 0
BBX 6 13 0 -2
BITMAP
00
00
00
04
78
dc
dc
cc
ec
ec
78
80
00
ENDCHAR
STARTCHAR 00d9
ENCODING 217
SWIDTH 461 0
DWIDTH 6 0
BBX 6 13 0 -2
BITMAP
00
60
30
00
cc
cc
cc
cc
cc
cc
78
00
00
ENDCHAR
STARTCHAR 00da
ENCODING 218
SWIDTH 461 0
DWIDTH 6 0
BBX 6 13 0 -2
BITMAP
00
30
60
00
cc
cc
cc
cc
cc
cc
78
00
00
ENDCHAR
STARTCHAR 00db
ENCODING 219
SWIDTH 461 0
DWIDTH 6 0
BBX 6 13 0 -2
BITMAP
00
70
d8
00
cc
cc
cc
cc
cc
cc
78
00
00
ENDCHAR
STARTCHAR 00dc
ENCODING 220
SWIDTH 461 0
DWIDTH 6 0
BBX 6 13 0 -2
BITMAP
00
d8
d8
00
cc
cc
cc
cc
cc
cc
78
00
00
ENDCHAR
STARTCHAR 00dd
ENCODING 221
SWIDTH 461 0
DWIDTH 6 0
BBX 6 13 0 -2
BITMAP
00
30
60
00
cc
48
78
30
30
30
30
00
00
ENDCHAR
STARTCHAR 00de
ENCODING 222
SWIDTH 461 0
DWIDTH 6 0
BBX 6 13 0 -2
BITMAP
00
00
c0
f8
cc
cc
cc
f8
c0
c0
c0
00
00
ENDCHAR
STARTCHAR 00df
ENCODING 223
SWIDTH 461 0
DWIDTH 6 0
BBX 6 13 0 -2
BITMAP
00
00
00
78
cc
cc
f8
cc
cc
cc
f8
80
00
ENDCHAR
STARTCHAR 00e0
ENCODING 224
SWIDTH 461 0
DWIDTH 6 0
BBX 6 13 0 -2
BITMAP
00
60
30
00
00
78
0c
7c
cc
dc
7c
00
00
ENDCHAR
STARTCHAR 00e1
ENCODING 225
SWIDTH 461 0
DWIDTH 6 0
BBX 6 13 0 -2
BITMAP
00
30
60
00
00
78
0c
7c
cc
dc
7c
00
00
ENDCHAR
STARTCHAR 00e2
ENCODING 226
SWIDTH 461 0
DWIDTH 6 0
BBX 6 13 0 -2
BITMAP
00
70
d8
00
00
78
0c
7c
cc
dc
7c
00
00
ENDCHAR
STARTCHAR 00e3
ENCODING 227
SWIDTH 461 0
DWIDTH 6 0
BBX 6 13 0 -2
BITMAP
00
68
b0
00
00
78
0c
7c
cc
dc
7c
00
00
ENDCHAR
STARTCHAR 00e4
ENCODING 228
SWIDTH 461 0
DWIDTH 6 0
BBX 6 13 0 -2
BITMAP
00
d8
d8
00
00
78
0c
7c
cc
dc
7c
00
00
ENDCHAR
STARTCHAR 00e5
ENCODING 229
SWIDTH 461 0
DWIDTH 6 0
BBX 6 13 0 -2
BITMAP
00
70
50
70
00
78
0c
7c
cc
dc
7c
00
00
ENDCHAR
STARTCHAR 00e6
ENCODING 230
SWIDTH 461 0
DWIDTH 6 0
BBX 6 13 0 -2
BITMAP
00
00
00
00
00
78
34
78
b0
b4
68
00
00
ENDCHAR
STARTCHAR 00e7
ENCODING 231
SWIDTH 461 0
DWIDTH 6 0
BBX 6 13 0 -2
BITMAP
00
00
00
00
00
78
cc
c0
c0
cc
78
30
60
ENDCHAR
STARTCHAR 00e8
ENCODING 232
SWIDTH 461 0
DWIDTH 6 0
BBX 6 13 0 -2
BITMAP
00
60
30
00
00
78
cc
fc
c0
c0
78
00
00
ENDCHAR
STARTCHAR 00e9
ENCODING 233
SWIDTH 461 0
DWIDTH 6 0
BBX 6 13 0 -2
BITMAP
00
30
60
00
00
78
cc
fc
c0
c0
78
00
00
ENDCHAR
STARTCHAR 00ea
ENCODING 234
SWIDTH 461 0
DWIDTH 6 0
BBX 6 13 0 -2
BITMAP
00
70
d8
00
00
78
cc
fc
c0
c0
78
00
00
ENDCHAR
STARTCHAR 00eb
ENCODING 235
SWIDTH 461 0
DWIDTH 6 0
BBX 6 13 0 -2
BITMAP
00
d8
d8
00
00
78
cc
fc
c0
c0
78
00
00
ENDCHAR
STARTCHAR 00ec
ENCODING 236
SWIDTH 461 0
DWIDTH 6 0
BBX 6 13 0 -2
BITMAP
00
60
30
00
00
70
30
30
30
30
78
00
00
ENDCHAR
STARTCHAR 00ed
ENCODING 237
SWIDTH 461 0
DWIDTH 6 0
BBX 6 13 0 -2
BITMAP
00
30
60
00
00
70
30
30
30
30
78
00
00
ENDCHAR
STARTCHAR 00ee
ENCODING 238
SWIDTH 461 0
DWIDTH 6 0
BBX 6 13 0 -2
BITMAP
00
70
d8
00
00
70
30
30
30
30
78
00
00
ENDCHAR
STARTCHAR 00ef
ENCODING 239
SWIDTH 461 0
DWIDTH 6 0
BBX 6 13 0 -2
BITMAP
00
d8
d8
00
00
70
30
30
30
30
78
00
00
ENDCHAR
STARTCHAR 00f0
ENCODING 240
SWIDTH 461 0
DWIDTH 6 0
BBX 6 13 0 -2
BITMAP
00
48
30
30
50
78
cc
cc
cc
cc
78
00
00
ENDCHAR
STARTCHAR 00f1
ENCODING 241
SWIDTH 461 0
DWIDTH 6 0
BBX 6 13 0 -2
BITMAP
00
68
b0
00
00
f8
ec
cc
cc
cc
cc
00
00
ENDCHAR
STARTCHAR 00f2
ENCODING 242
SWIDTH 461 0
DWIDTH 6 0
BBX 6 13 0 -2
BITMAP
00
60
30
00
00
78
cc
cc
cc
cc
78
00
00
ENDCHAR
STARTCHAR 00f3
ENCODING 243
SWIDTH 461 0
DWIDTH 6 0
BBX 6 13 0 -2
BITMAP
00
30
60
00
00
78
cc
cc
cc
cc
78
00
00
ENDCHAR
STARTCHAR 00f4
ENCODING 244
SWIDTH 461 0
DWIDTH 6 0
BBX 6 13 0 -2
BITMAP
00
70
d8
00
00
78
cc
cc
cc
cc
78
00
00
ENDCHAR
STARTCHAR 00f5
ENCODING 245
SWIDTH 461 0
DWIDTH 6 0
BBX 6 13 0 -2
BITMAP
00
68
b0
00
00
78
cc
cc
cc
cc
78
00
00
ENDCHAR
STARTCHAR 00f6
ENCODING 246
SWIDTH 461 0
DWIDTH 6 0
BBX 6 13 0 -2
BITMAP
00
d8
d8
00
00
78
cc
cc
cc
cc
78
00
00
ENDCHAR
STARTCHAR 00f7
ENCODING 247
SWIDTH 461 0
DWIDTH 6 0
BBX 6 13 0 -2
BITMAP
00
00
00
30
30
00
fc
00
30
30
00
00
00
ENDCHAR
STARTCHAR 00f8
ENCODING 248
SWIDTH 461 0
DWIDTH 6 0
BBX 6 13 0 -2
BITMAP
00
00
00
04
78
cc
dc
cc
ec
cc
78
80
00
ENDCHAR
STARTCHAR 00f9
ENCODING 249
SWIDTH 461 0
DWIDTH 6 0
BBX 6 13 0 -2
BITMAP
00
60
30
00
00
cc
cc
cc
cc
dc
7c
00
00
ENDCHAR
STARTCHAR 00fa
ENCODING 250
SWIDTH 461 0
DWIDTH 6 0
BBX 6 13 0 -2
BITMAP
00
30
60
00
00
cc
cc
cc
cc
dc
7c
00
00
ENDCHAR
STARTCHAR 00fb
ENCODING 251
SWIDTH 461 0
DWIDTH 6 0
BBX 6 13 0 -2
BITMAP
00
70
d8
00
00
cc
cc
cc
cc
dc
7c
00
00
ENDCHAR
STARTCHAR 00fc
ENCODING 252
SWIDTH 461 0
DWIDTH 6 0
BBX 6 13 0 -2
BITMAP
00
d8
d8
00
00
cc
cc
cc
cc
dc
7c
00
00
ENDCHAR
STARTCHAR 00fd
ENCODING 253
SWIDTH 461 0
DWIDTH 6 0
BBX 6 13 0 -2
BITMAP
00
30
60
00
00
cc
cc
cc
dc
7c
0c
cc
78
ENDCHAR
STARTCHAR 00fe
ENCODING 254
SWIDTH 461 0
DWIDTH 6 0
BBX 6 13 0 -2
BITMAP
00
00
00
c0
c0
f8
ec
cc
ec
f8
c0
c0
c0
ENDCHAR
STARTCHAR 00ff
ENCODING 255
SWIDTH 461 0
DWIDTH 6 0
BBX 6 13 0 -2
BITMAP
00
d8
d8
00
00
cc
cc
cc
dc
7c
0c
cc
78
ENDCHAR
ENDFONT
